<?xml version="1.0" standalone="no"?>
<!DOCTYPE svg PUBLIC "-//W3C//DTD SVG 1.1//EN" "../../../../www.w3.org/Graphics/SVG/1.1/DTD/svg11.dtd" >
<svg xmlns="http://www.w3.org/2000/svg">
<metadata></metadata>
<defs>
<font id="lithos_problack" horiz-adv-x="1673" >
<font-face units-per-em="2048" ascent="1489" descent="-559" />
<missing-glyph horiz-adv-x="512" />
<glyph horiz-adv-x="2048" />
<glyph horiz-adv-x="2048" />
<glyph unicode="&#xd;" horiz-adv-x="681" />
<glyph unicode=" "  horiz-adv-x="512" />
<glyph unicode="&#x09;" horiz-adv-x="512" />
<glyph unicode="&#xa0;" horiz-adv-x="512" />
<glyph unicode="!" horiz-adv-x="675" d="M90 1470l498 -18q-10 -88 -67.5 -456.5t-69.5 -493.5l-275 -19q-2 35 -40 437.5t-46 549.5zM139 0v309h342v-309h-342z" />
<glyph unicode="&#x22;" horiz-adv-x="798" d="M74 1487h264l-53 -467h-158zM463 1487h264l-53 -467h-158z" />
<glyph unicode="#" horiz-adv-x="1423" d="M123 309v260h229l37 201h-184v260h227l57 301h242l-57 -301h211l55 301h244l-56 -301h172v-260h-219l-32 -201h172v-260h-226l-51 -309h-248l56 309h-207l-53 -309h-246l55 309h-178zM598 569h205l35 201h-207z" />
<glyph unicode="$" d="M375 983q0 113 100 211t262 156l-8 288h264l-8 -215q133 37 240 41l20 -336q-172 0 -287.5 -33.5t-115.5 -93.5q0 -33 40 -62.5t144 -76.5q272 -123 272 -325q0 -135 -98 -235.5t-215 -160.5l8 -313h-264l8 256q-39 -14 -156.5 -33.5t-168.5 -23.5l-31 329 q164 2 308.5 45t144.5 95q0 47 -39 78.5t-140 78.5q-281 133 -280 330z" />
<glyph unicode="%" horiz-adv-x="2127" d="M82 1030q0 166 123 295t352 129q428 0 428 -407q0 -53 -22.5 -115t-71.5 -126.5t-145.5 -106.5t-223.5 -4209E9379A70" />
<glyph unicode="&#x26;" horiz-adv-x="1515" d="M37 313q0 225 282 451q-111 111 -110 235q0 164 212 301.5t611 178.5l37 -342q-432 -6 -432 -138q0 -45 43 -88t166 -141q74 -59 225 -170q55 86 148 264l303 -188q-86 -121 -203 -250l229 -158l-241 -317q-133 88 -267 192q-217 -176 -526 -176q-229 0 -353 92.5 t-124 253.5zM446 387q0 -47 48 -87t116 -40q111 0 203 76q-102 68 -299 242q-70 -88 -68 -191z" />
<glyph unicode="'" horiz-adv-x="471" d="M100 1487h271l-58 -461h-157z" />
<glyph unicode="(" horiz-adv-x="778" d="M68 686q0 172 44 332t113.5 274.5t138 194.5t134.5 123l192 -221q-41 -37 -59.5 -55.5t-67.5 -85t-76.5 -10A4DA41AD4" />
<glyph unicode=")" horiz-adv-x="778" d="M74 1386l207 228q66 -43 134 -115t138 -177t114 -251.5t44 -306.5q0 -172 -44 -332t-114 -274.5t-138 -194.5t-134 -123l-193 223q37 33 58.5 54.5t69.5 85t75.5 130t51.5 176t24 234.5q0 133 -37 254t-93.5 201t-94.5 122t-68 66z" />
<glyph unicode="*" horiz-adv-x="778" d="M74 1083l8 203q223 -70 295 -102q-6 -27 -29 -152.5t-29 -154.5l-169 75q14 23 73.5 96.5t65.5 79.5l-4 5q-4 -2 -47 -12.5t-98.5 -23t-65.5 -14.5zM145 1395l160 118q8 -18 44 -113t40 -104q2 6 16.5 47t33 93.5t26.5 74.5l160 -106q-18 -16 -71.5 -64.5t-111.5 -97.5 l-55 -49q-23 23 -125.5 106t-116.5 95zM397 1184q35 10 158 52t143 48l4 -190q-197 33 -208 39l-5 -5q6 -6 34 -37.5t64 -71.5t48 -54l-180 -88q-6 29 -33 167z" />
<glyph unicode="+" horiz-adv-x="1220" d="M82 424v246h397v420h262v-420h398v-246h-398v-424h-262v424h-397z" />
<glyph unicode="," horiz-adv-x="634" d="M100 -207l133 539l304 -137l-293 -467z" />
<glyph unicode="-" horiz-adv-x="860" d="M80 891q436 -8 694 -4l6 -289q-76 2 -345 -8.5t-345 -16.5z" />
<glyph unicode="." horiz-adv-x="634" d="M147 0v317h340v-317h-340z" />
<glyph unicode="../../../default.htm" horiz-adv-x="1036" d="M8 92q31 45 422 684q70 113 169 270.5t159.5 256t87.5 143.5l198 -121q-29 -35 -156.5 -229.5t-254.5 -405.5q-106 -174 -434 -731z" />
<glyph unicode="0" d="M61 698.5q0 313.5 223.5 518t589.5 204.5q338 0 538 -189.5t200 -477.5q0 -143 -50.5 -271.5t-144.5 -228.5t-246 -159.5t-342 -59.5q-346 0 -557 175t-211 488.5zM532 715q2 -184 94.5 -265t215.5 -81q117 0 207 92t90 282q0 184 -88 264t-201 80q-55 0 -106.5 -17 t-101.5 -56t-80 -116t-30 -183z" />
<glyph unicode="1" d="M356 1165q23 10 146 65.5t301 136.5t309 142l41 -24q-10 -502 -10 -629v-313q0 -480 4 -543h-467q8 213 8 586v418q-49 -18 -227 -103z" />
<glyph unicode="2" d="M184 72q12 12 91 79.5t129.5 113.5t129 128t126 146.5t84 143.5t36.5 144q0 94 -50 161t-134 99.5t-160 46t-160 15.5l66 340q465 -39 692.5 -195.5t227.5 -369.5q0 -57 -14.5 -112.5t-33 -98.5t-53.5 -90.5t-59.5 -76t-67.5 -66.5t-60.5 -51t-58.5 -44l-41 -29v-16 l451 25v-381q-41 6 -362 10q-291 6 -672 6h-76z" />
<glyph unicode="3" d="M371 268q82 -8 188.5 7.5t197.5 66.5t91 127q0 53 -42 90t-104.5 51.5t-111.5 20.5t-90 4l-13 186q39 0 8907F183DAA2" />
<glyph unicode="4" d="M119 414l878 1095l246 -53v-936l230 8l-15 -303l-217 8v-59q0 -55 4 -174h-424q0 18 5 86t5 109v36h-645zM559 516h285v379h-4q-20 -37 -144.5 -200t-136.5 -179z" />
<glyph unicode="5" d="M291 289q80 4 160.5 19.5t160.5 42t129.5 70.5t49.5 99q0 84 -111 125t-340 47l94 762q389 4 850 29l-2 -304E4FEEAD9" />
<glyph unicode="6" d="M221 471q0 293 219 598t516 465l213 -317q-238 -119 -350 -285q283 0 461 -131t174 -324q-4 -223 -182 -366.5t-455 -143.5q-262 0 -418 117q-178 135 -178 387zM676 438q0 -80 46 -135t120 -55q68 0 113.5 53t45.5 137q0 111 -72.5 179.5t-203.5 70.5q-49 -98 -49 -250z " />
<glyph unicode="7" d="M301 1475q1038 -23 1133 -21l22 -33q-29 -78 -292 -734t-296 -753l-422 181q14 29 135 267.5t233 462.5t126 259h-631z" />
<glyph unicode="8" d="M211 362q0 119 70.5 223.5t185.5 162.5q-111 49 -175.5 139t-64.5 192q0 164 159 287t472 121q289 0 436.5 -97.5t147.5 -267.5q0 -98 -62.5 -197.5t-187.5 -158.5q270 -104 270 -367q0 -76 -32.5 -146.5t-102.5 -137t-201 -107.5t-305 -41q-322 0 -466 108.5t-144 286.5 zM647 406q0 -100 56 -153.5t128 -53.5q76 0 133.5 52t57.5 165q0 104 -54.5 158.5t-123.5 54.5q-92 0 -144.5 -62.5t-52.5 -160.5zM662 1059q0 -82 51 -135.5t116 -53.5q70 0 123.5 50.5t53.5 150.5q0 102 -47 143t-113 41q-84 0 -134 -51t-50 -145z" />
<glyph unicode="9" d="M231 965q4 217 183.5 370.5t439.5 151.5q283 -4 428 -129q162 -139 162 -381q0 -283 -218 -586t-507 -471l-205 322q223 117 330 268q-279 0 -448 132t-165 323zM680 1001q0 -113 70.5 -180t205.5 -69q49 98 50 249q0 90 -43 146.5t-115 56.5q-74 0 -121 -55t-47 -148z " />
<glyph unicode=":" horiz-adv-x="634" d="M154 0v307h329v-307h-329zM154 707v307h329v-307h-329z" />
<glyph unicode=";" horiz-adv-x="634" d="M82 -207l133 529l283 -129l-293 -465zM156 707v307h329v-307h-329z" />
<glyph unicode="&#x3c;" horiz-adv-x="1220" d="M111 414v264l999 414v-263l-750 -280v-4l750 -283v-262z" />
<glyph unicode="=" horiz-adv-x="1220" d="M82 182v246h1057v-246h-1057zM82 666v245h1057v-245h-1057z" />
<glyph unicode="&#x3e;" horiz-adv-x="1220" d="M111 0v264l712 279v4l-712 278v265l999 -428v-234z" />
<glyph unicode="?" horiz-adv-x="1085" d="M78 1184l47 311q401 -45 626.5 -167t225.5 -308q0 -115 -58.5 -214t-156.5 -170t-212 -120t-241 -78l-78 246q39 10 80 27.5t87 48.5t75 81t29 111q0 109 -132 167.5t-292 64.5zM260 0v309h342v-309h-342z" />
<glyph unicode="@" horiz-adv-x="1611" d="M80 641q0 311 214 532.5t527 221.5q307 0 508 -193.5t201 -488.5q0 -172 -86 -285q-80 -109 -217 -109q-133 0 -213 105q-35 49 -51 76l-299 -6l-20.5 -41t-35 -72t-24.5 -51l-181 96q27 43 113 201.5t171 315.5t93 171h47q55 -90 188.5 -321.5t139.5 -239.5 q47 -72 88 -72q104 0 105 219q0 225 -154 385t-375 160q-236 0 -390.5 -168t-154.5 -424q0 -244 150.5 -392t376.5 -148q170 0 346 104l70 -154q-186 -102 -418 -102q-311 0 -515 190.5t-204 489.5zM717 651l178 4q-8 16 -47 90t-43 82q-8 -14 -45 -89t-43 -87z" />
<glyph unicode="A" horiz-adv-x="1730" d="M0 152q598 1016 827 1378h21q98 -147 308 -472t374 -578t201 -304l-406 -239q-35 59 -108.5 186t-75.5 131l-617 -35q-10 -19 -135 -285zM655 522l346 19q-14 31 -82.5 164t-89.5 182q-68 -136 -174 -365z" />
<glyph unicode="B" horiz-adv-x="1495" d="M211 -12q10 113 10 770v227q0 397 -10 469q436 0 633 -24q483 -61 483 -338q0 -184 -258 -304v-12q127 -25 224.5 -104.5t97.5 -212.5q0 -190 -255 -330.5t-730 -140.5h-195zM647 240q92 0 187.5 62.5t95.5 143.5q0 94 -84 146q-78 48 -183 47h-16v-399zM647 838 q78 0 155 64.5t77 166.5q0 90 -74 125q-63 30 -134 30q-12 0 -24 -1v-385z" />
<glyph unicode="C" horiz-adv-x="1320" d="M72 584q0 131 61.5 264t180 257t319.5 225.5t454 156.5l91 -393q-307 -55 -457 -179t-150 -280q0 -121 123 -204t322 -83q73 0 196 10l21 -374q-143 -16 -242 -17q-195 0 -353.5 38t-262 99.5t-173 143.5t-100 166t-30.5 170z" />
<glyph unicode="D" horiz-adv-x="1720" d="M209 -10q12 141 12 657v254q0 481 -10 553q522 0 786 -37q154 -20 271.5 -66t185.5 -99.5t111 -120t57 -122t14 -110.5q0 -186 -85 -341t-226 -258t-328.5 -175t-385 -103.5t-402.5 -31.5zM672 362q80 12 159.5 47t153.5 89.5t119 140.5t45 188q0 299 -477 299v-764z" />
<glyph unicode="E" horiz-adv-x="1273" d="M215 0q6 109 6 594v274q0 408 -6 586q80 0 447.5 15t431.5 22l8 -338q-43 0 -231.5 -5t-202.5 -5v-271q164 0 366 19l6 -328q-29 0 -190.5 4t-181.5 4v-243q409 0 458 4l9 -352q-33 0 -448 10t-472 10z" />
<glyph unicode="F" horiz-adv-x="1228" d="M213 0q8 109 8 596v272q0 467 -8 586q90 0 897 31l8 -338l-450 -10v-316q16 0 70.5 3t148.5 8.5t192 7.5l6 -324l-417 4v-174q0 -16 1 -174t1 -172h-457z" />
<glyph unicode="G" horiz-adv-x="1515" d="M72 575q0 82 27.5 174.5t103.5 203t189.5 209t305 187.5t430.5 142l95 -401q-109 -14 -221.5 -54.5t-215 -99.5t-167 -148.5t-64.5 -189.5q0 -94 61.5 -161.5t143.5 -93.5q76 -24 154 -24h12l2 164q0 31 -2 87.5t-2 84.5h444q-2 -79 -2 -188v-150q0 -43 2 -164.5 t2 -138.5q-171 -47 -431 -47h-21q-424 6 -635 177t-211 431z" />
<glyph unicode="H" horiz-adv-x="1896" d="M211 1454h481q-10 -92 -10 -469v-82l532 39v86q0 336 -8 426h477q-8 -197 -8 -672v-204q0 -500 8 -578h-477q8 279 8 440v156l-532 -39v-74q0 -295 8 -483h-475q6 135 6 623v221q0 487 -10 610z" />
<glyph unicode="I" horiz-adv-x="903" d="M215 0q6 135 6 623v221q0 16 -3 299.5t-3 310.5h475q-8 -147 -8 -614v-222q0 -430 8 -618h-475z" />
<glyph unicode="J" horiz-adv-x="946" d="M-6 117q51 29 77.5 45t72.5 60t71 92t45.5 129t20.5 184v319q0 385 -11 508h482q-11 -92 -11 -512v-319q0 -319 -133 -520t-395 -341z" />
<glyph unicode="K" horiz-adv-x="1626" d="M213 -20q8 238 8 638v218q0 106 -4 368t-4 271h477q-10 -164 -10 -619v-53h4q270 348 547 686l340 -299q-33 -35 -204 -209t-230 -238q74 -82 450 -477l-360 -315q-53 66 -255 331t-288 390h-4v-37q0 -557 10 -655h-477z" />
<glyph unicode="L" horiz-adv-x="1198" d="M213 1454h479q-10 -236 -10 -727v-375q291 0 455 8l2 -380q-10 0 -419 10t-505 10q6 109 6 596v272q0 508 -8 586z" />
<glyph unicode="M" horiz-adv-x="2228" d="M20 86q10 23 130 329t252.5 637.5t185.5 446.5h20q55 -90 159.5 -262t212 -349t120.5 -198q35 53 127 202.0464931A73" />
<glyph unicode="N" horiz-adv-x="1832" d="M152 0q6 68 38.5 694.5t42.5 771.5l21 13q129 -94 364.5 -270.5t437 -329t218.5 -164.5q0 27 -3 363q-2 201 -2 300q0 66 1 86l418 -10q-10 -135 -50 -764q-23 -397 -36 -721l-21 -10q-111 72 -370 268.5t-420.5 323.5t-225.5 178q0 -608 4 -743z" />
<glyph unicode="O" horiz-adv-x="1847" d="M82 668q0 152 55.5 295t162 261.5t281.5 190.5t392 72q367 0 579.5 -192.5t212.5 -528.5q0 -100 -25.5 -200637DC3A3C" />
<glyph unicode="P" horiz-adv-x="1464" d="M215 0q6 264 6 727v225q0 27 -3 258.5t-3 243.5q598 0 811 -51q170 -43 277.5 -142.5t107.5 -261.5q0 -213 -195.5 -396t-547.5 -241v-55q0 -264 4 -307h-457zM668 651q102 16 190 95t88 197q0 204 -278 224v-516z" />
<glyph unicode="Q" horiz-adv-x="1847" d="M82 672q0 342 243.5 578.5t643.5 236.5q369 0 582.5 -191.5t213.5 -515.5q0 -221 -106.5 -387t-265.5 -248v-14q86 -4 442 -12l-45 -346q-635 147 -725 166q-155 30 -206 30h-3q-55 0 -131 10.5t-206 57.5t-218 127q-219 199 -219 508zM582 690q0 -119 29.5 -205 t77.5 -129t98.5 -61.5t103.5 -18.5q66 0 127 24t118.5 76t92.5 150.5t35 231.5q0 219 -92.5 315t-219.5 96q-174 0 -272 -135t-98 -344z" />
<glyph unicode="R" horiz-adv-x="1587" d="M215 1454q535 0 750 -29q227 -29 347 -116.5t120 -229.5q0 -223 -265 -409q25 -29 212.5 -222.5t215.5 -230.5l-374 -283q-23 39 -247 369t-253 375q90 53 162.5 132t72.5 171q0 82 -67 135t-221 55v-544q0 -549 10 -627h-457q4 25 4 741v168q0 479 -10 545z" />
<glyph unicode="S" horiz-adv-x="1120" d="M72 967q0 182 226 336.5t597 187.5l55 -342q-385 0 -385 -127q0 -33 40 -60.5t159 -84.5q55 -27 93 -50.5t88 -64.5t77 -95.5t27 -119.5q0 -88 -48.5 -177t-145.5 -172t-269.5 -145.5t-395.5 -89.5l-55 350h29q143 0 259 36q128 40 128 110q0 31 -37 59.5t-164 99.5 q-125 72 -201.5 153t-76.5 196z" />
<glyph unicode="T" horiz-adv-x="1351" d="M-6 1092v358q184 -16 600 -16h178q385 0 586 16v-358q-233 12 -451 12v-569q0 -474 6 -535h-473q6 80 6 567v537q-72 0 -452 -12z" />
<glyph unicode="U" horiz-adv-x="1736" d="M150 1022v111q0 53 1 172.5t1 138.5h477q-13 -81 -13 -357v-139q0 -256 18.5 -377.5t76.5 -189.5q63 -74 107D2B95A2D" />
<glyph unicode="V" horiz-adv-x="1652" d="M2 1257l440 240q12 -29 187.5 -398.5t212.5 -449.5q35 78 217 450.5t192 397.5l432 -223q-37 -55 -407.5 -019AFCEA7F" />
<glyph unicode="W" horiz-adv-x="2181" d="M16 1315l435 160q180 -608 258 -824q12 25 69.5 116t150.5 242.5t173 284.5h20q100 -154 239.5 -356.5t170.5 -249.5h6q23 59 131.5 387t126.5 379l418 -164q-8 -16 -300 -637.5t-337 -705.5h-21q-33 41 -454 631q-61 -88 -242.5 -350.5t-230.5 -329.5h-21 q-35 68 -157.5 360.5t-264 641.5t-170.5 415z" />
<glyph unicode="X" horiz-adv-x="1638" d="M53 229q18 20 228.5 246.5t240.5 261.5q-59 66 -236 262.5t-188 206.5l351 320q354 -455 385 -490q16 18 105267EEAF7" />
<glyph unicode="Y" horiz-adv-x="1607" d="M53 1065l158 422q254 -84 385 -215q135 -135 199 -342h16q59 180 225 340q160 152 385 217l129 -422q-168 -35 -309 -154q-98 -80 -163.5 -220t-65.5 -306v-133q0 -150 10 -252h-481q10 236 10 291v90q0 193 -74 346.5t-192 230.5q-104 72 -232 107z" />
<glyph unicode="Z" horiz-adv-x="1484" d="M66 20q145 225 677 1096q-37 0 -302 9.5t-294 9.5l9 358q53 -8 634.5 -28.5t600.5 -22.5l8 -21q-35 -63 -302C8DAEA61" />
<glyph unicode="[" horiz-adv-x="778" d="M166 -160q8 272 8 819v189q0 491 -8 737l598 45l10 -225l-274 -10q-8 -115 -8 -424v-283q0 -430 8 -643l264 4l10 -225z" />
<glyph unicode="\" horiz-adv-x="1036" d="M-18 1325l198 121q27 -45 87.5 -143.5t159.5 -256t169 -270.5q391 -639 422 -684l-191 -133q-328 557 -434 731q-127 211 -255 405.5t-156 229.5z" />
<glyph unicode="]" horiz-adv-x="778" d="M4 49l275 10q8 115 8 424v262q0 451 -8 664l-265 -4l-10 225l608 -16q-8 -272 -8 -840v-168q0 -491 8 -737l-598 -45z" />
<glyph unicode="^" horiz-adv-x="1220" d="M68 352l426 979h233l426 -979h-279l-266 686l-266 -686h-274z" />
<glyph unicode="_" horiz-adv-x="1024" d="M0 -154h1024v-102h-1024v102z" />
<glyph unicode="`" horiz-adv-x="1847" d="M602 1743l127 207l338 -242l-88 -141z" />
<glyph unicode="a" horiz-adv-x="1574" d="M0 129q4 6 111.5 180t212 342t229.5 362.5t190 286.5h39q121 -168 439.5 -636.5t353.5 -513.5l-377 -207q-31 47 -94.5 150.5t-69.5 111.5l-547 -27l-118 -237zM602 444l307 15q-25 49 -80 149.5t-73 136.5q-142 -274 -154 -301z" />
<glyph unicode="b" horiz-adv-x="1368" d="M180 -10q8 96 8 655v193q0 326 -8 399q440 0 606 -20q440 -53 441 -289q0 -63 -60.5 -139t-193.5 -119v-11q121 -8 216 -80.5t95 -189.5q0 -166 -224 -282.5t-673 -116.5h-207zM598 211q90 0 168 49t78 119q0 84 -68 123q-58 34 -149 34q-14 0 -29 -1v-324zM598 721 q70 0 134.5 47t64.5 141q-1 77 -65 103q-53 22 -108 21q-13 0 -26 -1v-311z" />
<glyph unicode="c" horiz-adv-x="1210" d="M66 496q0 113 56 227.5t165.5 221t294 192.5t415.5 127l82 -344q-272 -45 -404 -147.5t-132 -231.5q0 -104 103.5 -168t285.5 -64q90 0 180 8l18 -331q-115 -14 -221 -15q-219 0 -388 47.5t-264 125t-143 166.5t-48 186z" />
<glyph unicode="d" horiz-adv-x="1560" d="M182 -8q11 133 11 559v215q0 406 -9 471q500 0 719 -29q139 -18 246.5 -57t169 -85t99.5 -103.5t50.5 -104.5t12.5 -94q0 -203 -116 -359.5t-306.5 -245.5t-414.5 -131q-196 -37 -403 -37q-29 0 -59 1zM627 315q150 20 270.5 121t120.5 266q0 78 -32 129.5t-92 76 t-122.5 33.5t-144.5 9v-635z" />
<glyph unicode="e" horiz-adv-x="1165" d="M188 0q4 92 5 506v231q0 12 -2.5 241.5t-2.5 258.5q84 0 421 13.5t399 17.5l8 -299q-39 0 -211 -5.5t-184 07FDAC2ADB" />
<glyph unicode="f" horiz-adv-x="1128" d="M186 0q6 92 7 506v231q0 346 -7 500q6 0 842 25l8 -299l-409 -9v-252q16 0 63 2.5t136 6.5t175 8l5 -289l-379 4v-139q0 -14 1 -148.5t1 -146.5h-443z" />
<glyph unicode="g" horiz-adv-x="1392" d="M66 489q0 70 26.5 150t97 176t177 179t283.5 158t401 116l86 -361q-143 -16 -274.5 -62t-229.5 -135t-98 -0ED89A0A2C" />
<glyph unicode="h" horiz-adv-x="1726" d="M188 1237h461q-10 -82 -10 -399v-62l448 33v65q0 285 -8 363h459q-8 -172 -8 -571v-174q0 -426 8 -492h-459q8 238 8 375v121l-448 -33v-51q0 -248 8 -412h-454q4 152 4 528v189q0 434 -9 520z" />
<glyph unicode="i" horiz-adv-x="821" d="M184 0q4 152 4 528v189q0 14 -2 255.5t-2 264.5h455q-8 -131 -8 -522v-189q0 -362 8 -526h-455z" />
<glyph unicode="j" horiz-adv-x="860" d="M-20 106q51 25 73.5 38.5t66.5 50t65.5 75.5t40 107.5t18.5 154.5v273q0 326 -11 432h463q-10 -82 -10 -436v-273q0 -270 -125 -445t-366 -294z" />
<glyph unicode="k" horiz-adv-x="1488" d="M186 -18q6 154 7 544v185q0 90 -3.5 313t-3.5 229h459q-10 -143 -10 -495v-51h4q340 414 471 565l313 -277q-76 -72 -372 -362q45 -45 397 -389l-354 -295q-25 27 -203 260t-252 334h-4v-31q0 -442 10 -530h-459z" />
<glyph unicode="l" horiz-adv-x="1089" d="M186 1237h459q-10 -205 -10 -619v-305q264 0 414 9l2 -340q-14 0 -392 9t-471 9q4 92 5 506v231q-1 396 -7 500z" />
<glyph unicode="m" horiz-adv-x="2027" d="M18 74q2 6 223.5 537.5t286.5 662.5h29q51 -76 146.5 -221.5t188.5 -287.5t109 -167q39 57 213.5 320.5t217.5 328.5h28q72 -145 300.5 -626.5t246.5 -518.5l-385 -155q-47 113 -142.5 348t-105.5 268q-188 -274 -395 -545h-29q-301 422 -364 535q-144 -487 -195 -606z " />
<glyph unicode="n" horiz-adv-x="1632" d="M125 0q6 61 35.5 595.5t40.5 651.5l32 10q199 -129 521.5 -354t351.5 -256q0 31 -1 180.5t-1 251v166.5l401 -8q-23 -256 -45 -651q-29 -514 -33 -613l-32 -8q-125 76 -459 313.5t-410 299.5q0 -539 2 -590z" />
<glyph unicode="o" horiz-adv-x="1689" d="M78 567q0 129 50 251t147.5 222.5t256 162t357.5 61.5q336 0 528.5 -163t192.5 -450q0 -84 -23.5 -171t-8301DFEC1A2C" />
<glyph unicode="p" horiz-adv-x="1370" d="M186 0q0 33 2 291t2 327v191q0 23 -2 219.5t-2 208.5q580 0 770 -45q156 -35 253.5 -120t97.5 -222q0 -190 -182.5 -347t-501.5 -204v-45q0 -217 2 -254h-439zM623 557q88 4 163.5 68.5t75.5 175.5q0 80 -53 126t-186 56v-426z" />
<glyph unicode="q" horiz-adv-x="1689" d="M78 571q0 291 222 492t585 201q336 0 530.5 -163t194.5 -437q0 -186 -93.5 -327.5t-226.5 -205.5v-12q57 -04C2EAAA61" />
<glyph unicode="r" horiz-adv-x="1443" d="M188 1237q539 0 701 -20q207 -27 315.5 -104t108.5 -195q0 -205 -234 -349q27 -29 187.5 -182.5t187.5 -181.5l-364 -264q-10 14 -115 165.5t-201 292t-119 172.5q205 100 205 263q1 149 -237 151v-453q0 -479 8 -532h-441q6 31 7 489v283q0 395 -9 465z" />
<glyph unicode="s" horiz-adv-x="1044" d="M59 821q0 168 219.5 301t575.5 152l49 -316q-203 0 -293 -18t-90 -72q0 -43 176 -110q8 -4 13 -6q53 -20 89 -38t86 -52.5t77.5 -85t27.5 -111.5q0 -82 -49 -162t-145.5 -150.5t-260 -121t-374.5 -66.5l-47 311h40q141 0 249 25q122 29 122 88q0 29 -36.5 54.5 t-153.5 76.5q-55 25 -95 48.5t-85 60.5t-70 86t-25 106z" />
<glyph unicode="t" horiz-adv-x="1230" d="M-6 911v322q147 -14 547 -14h161q375 0 533 14v-322q-174 10 -397 11v-467q0 -402 6 -455h-455q4 90 4 481v441q-113 0 -399 -11z" />
<glyph unicode="u" horiz-adv-x="1581" d="M127 868v95q0 45 1 147t1 117h459q-10 -76 -10 -303v-117q0 -219 16 -319.5t68 -155.5q55 -57 143 -58q98 09590E8A2C" />
<glyph unicode="v" horiz-adv-x="1503" d="M2 1069l410 207q68 -135 354 -719q33 70 194.5 389.5t167.5 329.5l404 -193q-25 -35 -358.5 -538.5t-413.5 -618.5h-39q-68 96 -188.5 286.5t-220 352.5t-203 329t-107.5 175z" />
<glyph unicode="w" horiz-adv-x="1984" d="M14 1118l404 142q178 -561 227 -697q12 23 60.5 95.5t138.5 207.5t155 234h27q193 -274 369 -504h4q18 45 113.5 323.5t113.5 323.5l389 -145q-8 -14 -270 -542.5t-305 -600.5h-27q-66 78 -409 532q-55 -74 -219 -295t-210 -280h-26q-33 57 -144.5 309t-236.5 543 t-154 354z" />
<glyph unicode="x" horiz-adv-x="1490" d="M45 205q16 18 205.5 205.5t216.5 216.5q-342 348 -381 391l330 285q37 -45 176 -214t166 -200q25 27 172 10A695E8A18" />
<glyph unicode="y" horiz-adv-x="1462" d="M49 872l144 398q219 -61 352 -183q117 -113 178 -296h14q57 164 203 294q152 133 354 189l117 -400q-172 -35 -283 -116q-88 -66 -141 -178.5t-53 -255.5v-109q0 -145 8 -215h-461q10 205 11 248v71q0 164 -62.5 285t-171.5 191q-20 14 -42.5 24t-47.5 18.5t-40 13.5 t-43 12z" />
<glyph unicode="z" horiz-adv-x="1351" d="M55 25q41 57 310.5 471.5t291.5 441.5q-33 0 -265 8t-257 8l6 316q47 -6 571.5 -24t553.5 -21l14 -23q-39 -66 -306 -477.5t-284 -427.5q453 0 559 12l-8 -327q-18 0 -572 9t-599 9z" />
<glyph unicode="{" horiz-adv-x="778" d="M31 618v228q109 0 158 39t53 166q8 274 96 404t303 165l84 -238q-82 -10 -117 -87.5t-35 -250.5q0 -92 -500D7F45AADB" />
<glyph unicode="|" horiz-adv-x="763" d="M246 -512v2048h274v-2048h-274z" />
<glyph unicode="}" horiz-adv-x="778" d="M53 61q82 10 117 88t35 250q0 96 51 182.5t141 131.5q-193 92 -192 329q0 190 -36 261t-116 79l84 238q2150E525D9A88" />
<glyph unicode="~" horiz-adv-x="1220" d="M63 360q0 240 72 346.5t236 104.5q127 0 293 -88q139 -76 182 -76t55 158h256q4 -141 -20.5 -236.5t-72.5 -140.5t-99.5 -62.5t-118.5 -17.5q-115 0 -291 101q-129 72 -160 71q-55 0 -80 -160h-252z" />
<glyph unicode="&#xa1;" horiz-adv-x="675" d="M88 2q10 88 67.5 456.5t69.5 493.5l275 19q2 -35 40 -437.5t46 -549.5zM195 1145v309h342v-309h-342z" />
<glyph unicode="&#xa2;" d="M332 692q0 330 399 531l-4 340h262l-6 -260q115 35 289 53l22 -340q-250 -16 -375.5 -96t-125.5 -197q0 -90AD70A5A1A" />
<glyph unicode="&#xa3;" d="M295 737q59 0 199 11q6 68 20 135q59 272 271 426.5t540 177.5l25 -328q-145 -4 -205 -29q-139 -59 -197 -280q-2 -6 -14 -90q59 4 184 15t139 11l-8 -211q-133 -4 -346 -14q-47 -203 -106 -285q311 1 583 21v-307q-14 0 -446 5t-584 5q49 158 123 553q-131 -10 -176 -12 z" />
<glyph unicode="&#xa5;" d="M152 1231l358 233q252 -461 324 -585h4q125 203 338 585l348 -215q-16 -23 -110.5 -151.5t-196 -265t-173.0281E9AA24 " />
<glyph unicode="&#xa8;" horiz-adv-x="1847" d="M494 1761l174 174l174 -174l-174 -174zM1006 1761l174 174l174 -174l-174 -174z" />
<glyph unicode="&#xa9;" horiz-adv-x="1744" d="M82 717q0 332 225 551t575.5 219t565.5 -209t215 -540.5t-225.5 -551t-575.5 -219.5q-344 0 -562 212t-218 538zM272 729q0 -266 171 -440t421 -174q270 0 439.5 170t169.5 444q0 266 -169 438t-419 172q-270 0 -441.5 -167.5t-171.5 -442.5zM537 682q0 137 127 268 t364 185l43 -207q-96 -20 -181 -77.5t-85 -131.5q0 -68 53 -109t143 -41q66 0 101 4l10 -194q-47 -6 -98 -6q-127 0 -221.5 28.5t-141.5 67.5t-74.5 88t-33.5 77t-6 48z" />
<glyph unicode="&#xab;" horiz-adv-x="1136" d="M121 696q70 89 291 359l159 -133q-174 -182 -202 -220q123 -131 211 -210l-146 -154q-14 16 -313 358zM522 707q31 39 171 199.5t177 209.5l162 -160q-12 -12 -70.5 -68.5t-101.5 -99.5t-61 -71q94 -104 233 -240l-162 -168q-10 14 -348 398z" />
<glyph unicode="&#xad;" horiz-adv-x="860" d="M80 891q436 -8 694 -4l6 -289q-76 2 -345 -8.5t-345 -16.5z" />
<glyph unicode="&#xae;" horiz-adv-x="1744" d="M82 717q0 332 225 551t575.5 219t565.5 -209t215 -540.5t-225.5 -551t-575.5 -219.5q-344 0 -562 212t-218 538zM272 729q0 -266 171 -440t421 -174q270 0 439.5 170t169.5 444q0 266 -169 438t-419 172q-270 0 -441.5 -167.5t-171.5 -442.5zM551 1110q340 0 444 -18 q92 -16 147.5 -62.5t55.5 -111.5q0 -113 -131 -207q135 -154 195 -207l-177 -131q-2 4 -117.5 159.5t-133.5 180.5q49 25 85.5 64.5t36.5 76.5q0 100 -182 98v-247q0 -264 6 -314l-227 2q2 12 2 371v84q0 221 -4 262z" />
<glyph unicode="&#xb4;" horiz-adv-x="1847" d="M760 1708l350 242l117 -207l-387 -176z" />
<glyph unicode="&#xb8;" horiz-adv-x="1474" d="M506 -399q88 4 147.5 31.5t61.5 78.5q2 39 -40 66.5t-114 46.5l101 196h200l-78 -149q63 -16 107.5 -62.5t44.5 -111.5q0 -98 -109.5 -159.5t-300.5 -76.5z" />
<glyph unicode="&#xbb;" horiz-adv-x="1136" d="M104 469q12 12 70.5 68.5t101.5 99.5t62 72q-94 104 -234 239l162 168q10 -14 348 -397q-31 -39 -171 -200t-177 -210zM557 934l145 153q14 -16 314 -358q-70 -88 -291 -358l-160 133q174 182 203 219q-123 131 -211 211z" />
<glyph unicode="&#xbf;" horiz-adv-x="1085" d="M109 434q0 115 58 214.5t156.5 170t212 119.5t240.5 78l78 -246q-39 -10 -80 -27.5t-87 -48t-74.5 -81t-28.5 -111.5q0 -109 132 -167.5t292 -64.5l-47 -311q-401 45 -626.5 167t-225.5 308zM483 1145v309h342v-309h-342z" />
<glyph unicode="&#xc0;" horiz-adv-x="1730" d="M0 152q598 1016 827 1378h21q98 -147 308 -472t374 -578t201 -304l-406 -239q-35 59 -108.5 186t-75.5 131l-617 -35q-10 -19 -135 -285zM545 1784l127 207l338 -242l-88 -141zM655 522l346 19q-14 31 -82.5 164t-89.5 182q-68 -136 -174 -365z" />
<glyph unicode="&#xc1;" horiz-adv-x="1730" d="M0 152q598 1016 827 1378h21q98 -147 308 -472t374 -578t201 -304l-406 -239q-35 59 -108.5 186t-75.5 131l-617 -35q-10 -19 -135 -285zM655 522l346 19q-14 31 -82.5 164t-89.5 182q-68 -136 -174 -365zM659 1749l351 242l116 -207l-387 -176z" />
<glyph unicode="&#xc2;" horiz-adv-x="1730" d="M0 152q598 1016 827 1378h21q98 -147 308 -472t374 -578t201 -304l-406 -239q-35 59 -108.5 186t-75.5 131l-617 -35q-10 -19 -135 -285zM494 1726l329 205l312 -205l-109 -159l-213 159l-221 -159zM655 522l346 19q-14 31 -82.5 164t-89.5 182q-68 -136 -174 -365z" />
<glyph unicode="&#xc4;" horiz-adv-x="1730" d="M0 152q598 1016 827 1378h21q98 -147 308 -472t374 -578t201 -304l-406 -239q-35 59 -108.5 186t-75.5 131l-617 -35q-10 -19 -135 -285zM403 1761l175 174l174 -174l-174 -174zM655 522l346 19q-14 31 -82.5 164t-89.5 182q-68 -136 -174 -365zM915 1761l175 174 l174 -174l-174 -174z" />
<glyph unicode="&#xc6;" horiz-adv-x="2058" d="M18 209q43 72 374 558t476 687q111 0 543 15.5t467 21.5l8 -332q-27 0 -223.5 -5t-214.5 -5v-281q158 0 373 21l4 -324q-197 8 -377 8v-251q373 0 463 6l8 -348q-31 0 -453 10t-436 10q4 94 4 328v49l-440 -10q-20 -31 -236 -400zM727 639l307 12v459h-16 q-43 -68 -153.5 -248t-137.5 -223z" />
<glyph unicode="&#xc7;" horiz-adv-x="1320" d="M72 584q0 131 61.5 264t180 257t319.5 225.5t454 156.5l91 -393q-307 -55 -457 -179t-150 -280q0 -121 123 -204t322 -83q73 0 196 10l21 -374q-143 -16 -242 -17q-115 0 -211 13l-51 -99q63 -16 107.5 -62t44.5 -112q0 -98 -109.5 -159.5t-300.5 -75.5l-20 139 q88 4 147 31.5t61 78.5q2 39 -39.5 67t-113.5 46l92 182q-264 72 -395 231t-131 337z" />
<glyph unicode="&#xc8;" horiz-adv-x="1273" d="M215 0q6 109 6 594v274q0 408 -6 586q80 0 447.5 15.5t431.5 21.5l8 -338q-43 0 -231.5 -5t-202.5 -5v-271q164 0 366 19l6 -328q-29 0 -190.5 4t-181.5 4v-243q409 0 458 4l9 -352q-33 0 -448 10t-472 10zM336 1743l127 207l338 -242l-88 -141z" />
<glyph unicode="&#xc9;" horiz-adv-x="1273" d="M215 0q6 109 6 594v274q0 408 -6 586q80 0 447.5 15.5t431.5 21.5l8 -338q-43 0 -231.5 -5t-202.5 -5v-271q164 0 366 19l6 -328q-29 0 -190.5 4t-181.5 4v-243q409 0 458 4l9 -352q-33 0 -448 10t-472 10zM473 1708l350 242l117 -207l-387 -176z" />
<glyph unicode="&#xca;" horiz-adv-x="1273" d="M215 0q6 109 6 594v274q0 408 -6 586q80 0 447.5 15.5t431.5 21.5l8 -338q-43 0 -231.5 -5t-202.5 -5v-271q164 0 366 19l6 -328q-29 0 -190.5 4t-181.5 4v-243q409 0 458 4l9 -352q-33 0 -448 10t-472 10zM317 1726l330 205l311 -205l-108 -159l-213 159l-221 -159z" />
<glyph unicode="&#xcb;" horiz-adv-x="1273" d="M207 1761l174 174l174 -174l-174 -174zM215 0q6 109 6 594v274q0 408 -6 586q80 0 447.5 15.5t431.5 21.5l8 -338q-43 0 -231.5 -5t-202.5 -5v-271q164 0 366 19l6 -328q-29 0 -190.5 4t-181.5 4v-243q409 0 458 4l9 -352q-33 0 -448 10t-472 10zM719 1761l174 174 l174 -174l-174 -174z" />
<glyph unicode="&#xcd;" horiz-adv-x="903" d="M215 0q6 135 6 623v221q0 16 -3 299.5t-3 310.5h475q-8 -147 -8 -614v-222q0 -430 8 -618h-475zM307 1708l350 242l117 -207l-387 -176z" />
<glyph unicode="&#xce;" horiz-adv-x="903" d="M133 1726l330 205l311 -205l-108 -159l-213 159l-222 -159zM215 0q6 135 6 623v221q0 16 -3 299.5t-3 310.5h475q-8 -147 -8 -614v-222q0 -430 8 -618h-475z" />
<glyph unicode="&#xcf;" horiz-adv-x="903" d="M23 1761l174 174l174 -174l-174 -174zM215 0q6 135 6 623v221q0 16 -3 299.5t-3 310.5h475q-8 -147 -8 -614v-222q0 -430 8 -618h-475zM535 1761l174 174l174 -174l-174 -174z" />
<glyph unicode="&#xd1;" horiz-adv-x="1832" d="M152 0q6 68 38.5 694.5t42.5 771.5l21 13q129 -94 364.5 -270.5t437 -329t218.5 -164.5q0 27 -3 362.5t-1 386.5l418 -10q-10 -135 -50 -764q-23 -397 -36 -721l-21 -10q-111 72 -370 268.5t-420.5 323.5t-225.5 178q0 -608 4 -743zM580 1634q27 96 87 158.5t128 62.5 q33 0 61.5 -6t65 -20t45.5 -17q74 -29 110 -28q61 2 103 92l141 -59q-35 -111 -90 -164.5t-117 -55.5q-53 0 -170 41q-80 31 -123 31q-67 0 -102 -92z" />
<glyph unicode="&#xd3;" horiz-adv-x="1847" d="M82 668q0 152 55.5 295t162 261.5t281.5 190.5t392 72q367 0 579.5 -192.5t212.5 -528.5q0 -100 -25.5 -202.5t-92 -212t-164 -193.5t-256 -137.5t-355 -53.5t-353.5 62.5t-249 166t-140 224.5t-48 248zM582 698.5q0 -196.5 90 -305t223 -108.5q170 0 268.5 120.5 t100.5 346.5q2 197 -83 307t-235 110q-168 0 -266 -137t-98 -333.5zM760 1708l350 242l117 -207l-387 -176z" />
<glyph unicode="&#xd4;" horiz-adv-x="1847" d="M82 668q0 152 55.5 295t162 261.5t281.5 190.5t392 72q367 0 579.5 -192.5t212.5 -528.5q0 -100 -25.5 -202.5t-92 -212t-164 -193.5t-256 -137.5t-355 -53.5t-353.5 62.5t-249 166t-140 224.5t-48 248zM582 698.5q0 -196.5 90 -305t223 -108.5q170 0 268.5 120.5 t100.5 346.5q2 197 -83 307t-235 110q-168 0 -266 -137t-98 -333.5zM625 1726l329 205l312 -205l-109 -159l-213 159l-221 -159z" />
<glyph unicode="&#xd6;" horiz-adv-x="1847" d="M82 668q0 152 55.5 295t162 261.5t281.5 190.5t392 72q367 0 579.5 -192.5t212.5 -528.5q0 -100 -25.5 -202.5t-92 -212t-164 -193.5t-256 -137.5t-355 -53.5t-353.5 62.5t-249 166t-140 224.5t-48 248zM494 1761l174 174l174 -174l-174 -174zM582 698.5 q0 -196.5 90 -305t223 -108.5q170 0 268.5 120.5t100.5 346.5q2 197 -83 307t-235 110q-168 0 -266 -137t-98 -333.5zM1006 1761l174 174l174 -174l-174 -174z" />
<glyph unicode="&#xd9;" horiz-adv-x="1736" d="M150 1022v111q0 53 1 172.5t1 138.5h477q-13 -81 -13 -357v-139q0 -256 18.5 -377.5t76.5 -189.5q63 -74 174 -74q119 0 182 96q41 61 50 169t9 466v78q0 63 -2 133t-5 136.5t-3 89.5h469q0 -8 1 -137.5t1 -225.5v-94q0 -326 -34.5 -508t-143.5 -313q-188 -229 -551 -230 q-397 0 -573 256q-78 117 -106.5 276.5t-28.5 522.5zM567 1743l127 207l338 -242l-88 -141z" />
<glyph unicode="&#xda;" horiz-adv-x="1736" d="M150 1022v111q0 53 1 172.5t1 138.5h477q-13 -81 -13 -357v-139q0 -256 18.5 -377.5t76.5 -189.5q63 -74 174 -74q119 0 182 96q41 61 50 169t9 466v78q0 63 -2 133t-5 136.5t-3 89.5h469q0 -8 1 -137.5t1 -225.5v-94q0 -326 -34.5 -508t-143.5 -313q-188 -229 -551 -230 q-397 0 -573 256q-78 117 -106.5 276.5t-28.5 522.5zM705 1708l350 242l116 -207l-387 -176z" />
<glyph unicode="&#xdb;" horiz-adv-x="1736" d="M150 1022v111q0 53 1 172.5t1 138.5h477q-13 -81 -13 -357v-139q0 -256 18.5 -377.5t76.5 -189.5q63 -74 174 -74q119 0 182 96q41 61 50 169t9 466v78q0 63 -2 133t-5 136.5t-3 89.5h469q0 -8 1 -137.5t1 -225.5v-94q0 -326 -34.5 -508t-143.5 -313q-188 -229 -551 -230 q-397 0 -573 256q-78 117 -106.5 276.5t-28.5 522.5zM559 1726l330 205l311 -205l-108 -159l-213 159l-222 -159z" />
<glyph unicode="&#xdc;" horiz-adv-x="1736" d="M150 1022v111q0 53 1 172.5t1 138.5h477q-13 -81 -13 -357v-139q0 -256 18.5 -377.5t76.5 -189.5q63 -74 174 -74q119 0 182 96q41 61 50 169t9 466v78q0 63 -2 133t-5 136.5t-3 89.5h469q0 -8 1 -137.5t1 -225.5v-94q0 -326 -34.5 -508t-143.5 -313q-188 -229 -551 -230 q-397 0 -573 256q-78 117 -106.5 276.5t-28.5 522.5zM438 1761l174 174l174 -174l-174 -174zM950 1761l174 174l174 -174l-174 -174z" />
<glyph unicode="&#xdf;" horiz-adv-x="2095" d="M59 821q0 168 219.5 301t575.5 152l49 -316q-203 0 -293 -18t-90 -72q0 -43 176 -110q8 -4 13 -6q53 -20 89 -38t86 -52.5t77.5 -85t27.5 -111.5q0 -82 -49 -162t-145.5 -150.5t-260 -121t-374.5 -66.5l-47 311q166 -4 288.5 25t122.5 88q0 29 -36.5 54.5t-153.5 76.5 q-55 25 -95 48.5t-85 60.5t-70 86t-25 106zM1106 821q0 168 219 301t576 152l49 -316q-203 0 -293 -18t-90 -72q0 -43 176 -110l12 -6q53 -20 89 -38t86 -52.5t78 -85t28 -111.5q0 -82 -49.5 -162t-145.5 -150.5t-260 -121t-375 -66.5l-47 311q166 -4 289 25t123 88 q0 29 -37 54.5t-154 76.5q-55 25 -95 48.5t-85 60.5t-69.5 86t-24.5 106z" />
<glyph unicode="&#xe0;" horiz-adv-x="1574" d="M0 129q4 6 111.5 180t212 342t229.5 362.5t190 286.5h39q121 -168 439.5 -636.5t353.5 -513.5l-377 -207q-31 47 -94.5 150.5t-69.5 111.5l-547 -27l-118 -237zM479 1548l121 197l320 -229l-82 -134zM602 444l307 15q-25 49 -80 149.5t-73 136.5q-142 -274 -154 -301z " />
<glyph unicode="&#xe1;" horiz-adv-x="1574" d="M0 129q4 6 111.5 180t212 342t229.5 362.5t190 286.5h39q121 -168 439.5 -636.5t353.5 -513.5l-377 -207q-31 47 -94.5 150.5t-69.5 111.5l-547 -27l-118 -237zM602 444l307 15q-25 49 -80 149.5t-73 136.5q-142 -274 -154 -301zM676 1518l332 229l110 -197l-366 -166z " />
<glyph unicode="&#xe2;" horiz-adv-x="1574" d="M0 129q4 6 111.5 180t212 342t229.5 362.5t190 286.5h39q121 -168 439.5 -636.5t353.5 -513.5l-377 -207q-31 47 -94.5 150.5t-69.5 111.5l-547 -27l-118 -237zM485 1544l314 195l295 -195l-103 -153l-203 153l-210 -153zM602 444l307 15q-25 49 -80 149.5t-73 136.5 q-142 -274 -154 -301z" />
<glyph unicode="&#xe4;" horiz-adv-x="1574" d="M0 129q4 6 111.5 180t212 342t229.5 362.5t190 286.5h39q121 -168 439.5 -636.5t353.5 -513.5l-377 -207q-31 47 -94.5 150.5t-69.5 111.5l-547 -27l-118 -237zM379 1577l166 166l166 -166l-166 -166zM602 444l307 15q-25 49 -80 149.5t-73 136.5q-142 -274 -154 -301z M866 1577l166 166l166 -166l-166 -166z" />
<glyph unicode="&#xe6;" horiz-adv-x="1884" d="M14 182q47 72 344 482.5t424 572.5q96 0 498.5 12.5t443.5 18.5l9 -293q-23 0 -202 -4t-198 -4v-226q106 0 340 19l4 -283q-23 0 -172 3t-172 3v-200q320 0 422 6l8 -307q-39 0 -427 9t-398 9q4 82 4 279v30l-389 -8q-23 -31 -211 -330zM674 543l268 10v387h-12 q-139 -211 -256 -397z" />
<glyph unicode="&#xe7;" horiz-adv-x="1210" d="M66 496q0 113 56 227.5t165.5 221t294 192.5t415.5 127l82 -344q-272 -45 -404 -147.5t-132 -231.5q0 -1040BF5C81A98" />
<glyph unicode="&#xe8;" horiz-adv-x="1165" d="M188 0q4 92 5 506v231q0 12 -2.5 241.5t-2.5 258.5q84 0 421 13.5t399 17.5l8 -299q-39 0 -211 -5.5t-184 -5.5v-210q170 0 333 16l4 -291q-25 0 -172 3t-165 3v-188q374 0 417 4l6 -313q-33 0 -415.5 9t-440.5 9zM324 1548l120 197l320 -229l-82 -134z" />
<glyph unicode="&#xe9;" horiz-adv-x="1165" d="M188 0q4 92 5 506v231q0 12 -2.5 241.5t-2.5 258.5q84 0 421 13.5t399 17.5l8 -299q-39 0 -211 -5.5t-184 -5.5v-210q170 0 333 16l4 -291q-25 0 -172 3t-165 3v-188q374 0 417 4l6 -313q-33 0 -415.5 9t-440.5 9zM512 1518l332 229l110 -197l-366 -166z" />
<glyph unicode="&#xea;" horiz-adv-x="1165" d="M188 0q4 92 5 506v231q0 12 -2.5 241.5t-2.5 258.5q84 0 421 13.5t399 17.5l8 -299q-39 0 -211 -5.5t-184 -5.5v-210q170 0 333 16l4 -291q-25 0 -172 3t-165 3v-188q374 0 417 4l6 -313q-33 0 -415.5 9t-440.5 9zM319 1544l314 195l295 -195l-103 -153l-202 153 l-211 -153z" />
<glyph unicode="&#xeb;" horiz-adv-x="1165" d="M188 0q4 92 5 506v231q0 12 -2.5 241.5t-2.5 258.5q84 0 421 13.5t399 17.5l8 -299q-39 0 -211 -5.5t-184 -5.5v-210q170 0 333 16l4 -291q-25 0 -172 3t-165 3v-188q374 0 417 4l6 -313q-33 0 -415.5 9t-440.5 9zM193 1577l165 166l166 -166l-166 -166zM680 1577 l166 166l166 -166l-166 -166z" />
<glyph unicode="&#xed;" horiz-adv-x="821" d="M184 0q4 152 4 528v189q0 14 -2 255.5t-2 264.5h455q-8 -131 -8 -522v-189q0 -362 8 -526h-455zM319 1518l332 229l111 -197l-367 -166z" />
<glyph unicode="&#xee;" horiz-adv-x="821" d="M127 1544l313 195l295 -195l-102 -153l-203 153l-211 -153zM184 0q4 152 4 528v189q0 14 -2 255.5t-2 264.5h455q-8 -131 -8 -522v-189q0 -362 8 -526h-455z" />
<glyph unicode="&#xef;" horiz-adv-x="821" d="M2 1577l166 166l166 -166l-166 -166zM184 0q4 152 4 528v189q0 14 -2 255.5t-2 264.5h455q-8 -131 -8 -522v-189q0 -362 8 -526h-455zM489 1577l166 166l166 -166l-166 -166z" />
<glyph unicode="&#xf1;" horiz-adv-x="1632" d="M125 0q6 61 35.5 595.5t40.5 651.5l32 10q199 -129 521.5 -354t351.5 -256q0 31 -1 180.5t-1 251v166.5l401 -8q-23 -256 -45 -651q-29 -514 -33 -613l-32 -8q-125 76 -459 313.5t-410 299.5q0 -539 2 -590zM496 1456q25 90 83 150.5t121 60.5q59 0 164 -43 q70 -25 105 -25q57 2 96 87l135 -56q-33 -106 -86 -157.5t-110 -51.5q-25 -2 -49.5 2t-38 8.5t-41 15.5t-33.5 13q-72 29 -117 29q-65 0 -96 -86z" />
<glyph unicode="&#xf3;" horiz-adv-x="1689" d="M78 567q0 129 50 251t147.5 222.5t256 162t357.5 61.5q336 0 528.5 -163t192.5 -450q0 -84 -23.5 -171t-83 -180t-147.5 -165t-232.5 -118t-325 -46t-322.5 53.5t-226 141.5t-128 190.5t-44 210.5zM555 594q0 -164 74.5 -252t189.5 -88q145 0 229.5 98.5t84.5 286.5 q0 166 -70 254t-199 88q-145 0 -227 -111.5t-82 -275.5zM776 1518l332 229l111 -197l-367 -166z" />
<glyph unicode="&#xf4;" horiz-adv-x="1689" d="M78 567q0 129 50 251t147.5 222.5t256 162t357.5 61.5q336 0 528.5 -163t192.5 -450q0 -84 -23.5 -171t-83 -180t-147.5 -165t-232.5 -118t-325 -46t-322.5 53.5t-226 141.5t-128 190.5t-44 210.5zM555 594q0 -164 74.5 -252t189.5 -88q145 0 229.5 98.5t84.5 286.5 q0 166 -70 254t-199 88q-145 0 -227 -111.5t-82 -275.5zM561 1544l313 195l295 -195l-102 -153l-203 153l-211 -153z" />
<glyph unicode="&#xf6;" horiz-adv-x="1689" d="M78 567q0 129 50 251t147.5 222.5t256 162t357.5 61.5q336 0 528.5 -163t192.5 -450q0 -84 -23.5 -171t-83 -180t-147.5 -165t-232.5 -118t-325 -46t-322.5 53.5t-226 141.5t-128 190.5t-44 210.5zM455 1577l166 166l165 -166l-165 -166zM555 594q0 -164 74.5 -252 t189.5 -88q145 0 229.5 98.5t84.5 286.5q0 166 -70 254t-199 88q-145 0 -227 -111.5t-82 -275.5zM942 1577l166 166l166 -166l-166 -166z" />
<glyph unicode="&#xf9;" horiz-adv-x="1581" d="M127 868v95q0 45 1 147t1 117h459q-10 -76 -10 -303v-117q0 -219 16 -319.5t68 -155.5q55 -57 143 -58q98 0 151 76q37 51 45.5 138t8.5 395v65q0 53 -2 112.5t-5.5 117t-3.5 75.5h451q0 -8 1 -116.5t1 -190.5v-82q0 -274 -31.5 -428.5t-130.5 -267.5 q-84 -94 -218 -145.5t-292 -51.5q-373 0 -528 219q-72 100 -98.5 236.5t-26.5 441.5zM502 1548l121 197l319 -229l-82 -134z" />
<glyph unicode="&#xfa;" horiz-adv-x="1581" d="M127 868v95q0 45 1 147t1 117h459q-10 -76 -10 -303v-117q0 -219 16 -319.5t68 -155.5q55 -57 143 -58q98 0 151 76q37 51 45.5 138t8.5 395v65q0 53 -2 112.5t-5.5 117t-3.5 75.5h451q0 -8 1 -116.5t1 -190.5v-82q0 -274 -31.5 -428.5t-130.5 -267.5 q-84 -94 -218 -145.5t-292 -51.5q-373 0 -528 219q-72 100 -98.5 236.5t-26.5 441.5zM721 1518l332 229l110 -197l-366 -166z" />
<glyph unicode="&#xfb;" horiz-adv-x="1581" d="M127 868v95q0 45 1 147t1 117h459q-10 -76 -10 -303v-117q0 -219 16 -319.5t68 -155.5q55 -57 143 -58q98 0 151 76q37 51 45.5 138t8.5 395v65q0 53 -2 112.5t-5.5 117t-3.5 75.5h451q0 -8 1 -116.5t1 -190.5v-82q0 -274 -31.5 -428.5t-130.5 -267.5 q-84 -94 -218 -145.5t-292 -51.5q-373 0 -528 219q-72 100 -98.5 236.5t-26.5 441.5zM508 1544l313 195l295 -195l-102 -153l-203 153l-211 -153z" />
<glyph unicode="&#xfc;" horiz-adv-x="1581" d="M127 868v95q0 45 1 147t1 117h459q-10 -76 -10 -303v-117q0 -219 16 -319.5t68 -155.5q55 -57 143 -58q98 0 151 76q37 51 45.5 138t8.5 395v65q0 53 -2 112.5t-5.5 117t-3.5 75.5h451q0 -8 1 -116.5t1 -190.5v-82q0 -274 -31.5 -428.5t-130.5 -267.5 q-84 -94 -218 -145.5t-292 -51.5q-373 0 -528 219q-72 100 -98.5 236.5t-26.5 441.5zM401 1577l166 166l166 -166l-166 -166zM889 1577l166 166l166 -166l-166 -166z" />
<glyph unicode="&#xff;" horiz-adv-x="1462" d="M49 872l144 398q219 -61 352 -183q117 -113 178 -296h14q57 164 203 294q152 133 354 189l117 -400q-172 -35 -283 -116q-88 -66 -141 -178.5t-53 -255.5v-109q0 -145 8 -215h-461q10 205 11 248v71q0 164 -62.5 285t-171.5 191q-20 14 -42.5 24t-47.5 18.5t-40 13.5 t-43 12zM342 1577l166 166l166 -166l-166 -166zM829 1577l166 166l166 -166l-166 -166z" />
<glyph unicode="&#x152;" horiz-adv-x="2287" d="M82 668q0 217 97 401t296 301t463 117q96 0 211 -17q119 -16 129 -16q53 0 418.5 15.5t410.5 21.5l9 -332l0D29020A00" />
<glyph unicode="&#x153;" horiz-adv-x="2088" d="M74 567q0 287 211 492t569 205q100 0 193 -15q106 -12 116 -12q53 0 386 12.5t382 18.5l8 -293l-405 -8l-202D7E93ABC" />
<glyph unicode="&#x178;" horiz-adv-x="1607" d="M53 1065l158 422q254 -84 385 -215q135 -135 199 -342h16q59 180 225 340q160 152 385 217l129 -422q-168 -35 -309 -154q-98 -80 -163.5 -220t-65.5 -306v-133q0 -150 10 -252h-481q10 236 10 291v90q0 193 -74 346.5t-192 230.5q-104 72 -232 107zM375 1761l174 174 l174 -174l-174 -174zM887 1761l174 174l174 -174l-174 -174z" />
<glyph unicode="&#x2c6;" horiz-adv-x="1847" d="M604 1726l330 205l311 -205l-108 -159l-213 159l-222 -159z" />
<glyph unicode="&#x2da;" horiz-adv-x="1847" d="M653 1759q2 98 76 154.5t199 56.5q266 0 266 -184q0 -102 -76 -158.5t-207 -56.5q-121 0 -190.5 49t-67.5 0F4A436A8B" />
<glyph unicode="&#x2dc;" horiz-adv-x="1847" d="M555 1634q27 96 87 158.5t128 62.5q33 0 61.5 -6t65.5 -20t45 -17q74 -29 111 -28q61 2 102 92l141 -59q-35 -111 -90 -164.5t-116 -55.5q-53 0 -170 41q-80 31 -123 31q-68 0 -103 -92z" />
<glyph unicode="&#x2000;" horiz-adv-x="995" />
<glyph unicode="&#x2001;" horiz-adv-x="1991" />
<glyph unicode="&#x2002;" horiz-adv-x="995" />
<glyph unicode="&#x2003;" horiz-adv-x="1991" />
<glyph unicode="&#x2004;" horiz-adv-x="663" />
<glyph unicode="&#x2005;" horiz-adv-x="497" />
<glyph unicode="&#x2006;" horiz-adv-x="331" />
<glyph unicode="&#x2007;" horiz-adv-x="331" />
<glyph unicode="&#x2008;" horiz-adv-x="248" />
<glyph unicode="&#x2009;" horiz-adv-x="398" />
<glyph unicode="&#x200a;" horiz-adv-x="110" />
<glyph unicode="&#x2010;" horiz-adv-x="860" d="M80 891q436 -8 694 -4l6 -289q-76 2 -345 -8.5t-345 -16.5z" />
<glyph unicode="&#x2011;" horiz-adv-x="860" d="M80 891q436 -8 694 -4l6 -289q-76 2 -345 -8.5t-345 -16.5z" />
<glyph unicode="&#x2012;" horiz-adv-x="860" d="M80 891q436 -8 694 -4l6 -289q-76 2 -345 -8.5t-345 -16.5z" />
<glyph unicode="&#x2013;" horiz-adv-x="1024" d="M0 573v293q225 -4 391 -4h246q23 0 197 2t190 2v-293q-33 4 -387 5h-246q-328 -1 -391 -5z" />
<glyph unicode="&#x2014;" horiz-adv-x="2048" d="M0 573v293q225 -4 596 -4h860q111 0 249 1t235.5 2t107.5 1v-293q-33 4 -592 5h-860q-533 -1 -596 -5z" />
<glyph unicode="&#x2018;" horiz-adv-x="471" d="M59 1376l246 111l119 -453l-143 -65z" />
<glyph unicode="&#x2019;" horiz-adv-x="471" d="M47 1034l119 453l246 -111l-222 -407z" />
<glyph unicode="&#x201a;" horiz-adv-x="471" d="M47 -174l119 453l246 -111l-222 -408z" />
<glyph unicode="&#x201c;" horiz-adv-x="798" d="M59 1356l201 131l203 -412l-127 -84zM403 1393l246 94l103 -459l-148 -59z" />
<glyph unicode="&#x201d;" horiz-adv-x="798" d="M47 1028l103 459l245 -94l-200 -424zM336 1075l203 412l200 -131l-276 -365z" />
<glyph unicode="&#x201e;" horiz-adv-x="798" d="M47 -180l103 459l245 -95l-200 -424zM336 -133l203 412l200 -132l-276 -364z" />
<glyph unicode="&#x2022;" horiz-adv-x="675" d="M68 823q156 80 315 193q20 -33 71.5 -113t84 -127t69.5 -88q-182 -113 -368 -250q-149 342 -172 385z" />
<glyph unicode="&#x2026;" horiz-adv-x="2048" d="M186 0v307h310v-307h-310zM868 0v307h310v-307h-310zM1550 0v307h310v-307h-310z" />
<glyph unicode="&#x202f;" horiz-adv-x="398" />
<glyph unicode="&#x2039;" horiz-adv-x="737" d="M115 696q29 35 170 203t178 217l162 -160q-16 -16 -70.5 -71.5t-99.5 -102.5t-64 -75q20 -23 234 -230l-162 -168q-31 37 -182.5 204t-165.5 183z" />
<glyph unicode="&#x203a;" horiz-adv-x="737" d="M113 469q16 16 70.5 71.5t99.5 102.5t63 76q-20 23 -233 229l161 168q31 -37 182.5 -204t166.5 -183q-29 -35 -170.5 -203t-178.5 -217z" />
<glyph unicode="&#x205f;" horiz-adv-x="497" />
<glyph unicode="&#x20ac;" d="M268 688l6 156q31 0 85.5 1t66.5 1q190 489 893 624l76 -323q-207 -23 -360.5 -93.5t-215.5 -183.5q373 2006F7E33A2E" />
<glyph unicode="&#x2122;" horiz-adv-x="1576" d="M31 1253v209q23 -2 157 -6q61 -2 121 -2h78q186 0 275 8v-209q-16 0 -91 2t-106 2v-59q0 -80 3 -187.5t5 -182t2 -78.5h-252q4 53 4 450v57q-47 0 -112.5 -2t-83.5 -2zM563 776q10 23 114.5 356.5t115.5 362.5l108 -6q14 -25 70.5 -169t72.5 -183q41 111 146 344l108 -11 q10 -23 108.5 -327.5t121.5 -351.5l-219 -68q-10 39 -43 186.5t-37 165.5h-8q-59 -115 -142 -293l-106 11q-37 78 -73 166t-50 116h-4q-23 -80 -66 -352z" />
<glyph unicode="&#xe000;" horiz-adv-x="1300" d="M0 0v1300h1300v-1300h-1300z" />
</font>
</defs>
</svg>
